<svg id="Lag_1" data-name="Lag 1" xmlns="http://www.w3.org/2000/svg" viewBox="0 0 384.07 439.9"><defs><style>.cls-1,.cls-2{fill:none;}.cls-1,.cls-3{stroke:#000;}.cls-1,.cls-2,.cls-3{stroke-miterlimit:10;stroke-width:2px;}.cls-2{stroke:#e6dbdb;}.cls-3{fill:#e6dbdb;}</style></defs><title>Tegnebræt 1</title><path class="cls-1" d="M160.4,174.8s-18.76,13-27.62,0-9-49.84-9-49.84,11.41-29.42,36.63-8.41C160.4,116.55,167.6,161.59,160.4,174.8Z"/><path class="cls-1" d="M197.49,170.29s-18.76,13-27.62,0-9-49.84-9-49.84S172.27,91,197.49,112C197.49,112,204.69,157.08,197.49,170.29Z"/><path class="cls-1" d="M230.59,176.85s-20,10.27-27.47-2.92-4-47.93-4-47.93,14.29-26.53,37.27-4.05C236.43,121.94,239.08,165.16,230.59,176.85Z"/><path class="cls-1" d="M257.36,187s-19.4,8.21-24.15-5.93,3.64-48.86,3.64-48.86,16.77-25.25,34-.05C270.82,132.2,266.72,176.15,257.36,187Z"/><path class="cls-1" d="M123.21,387.54C127,365.8,129,344.8,132,322.8c3-14,6-28,5-42-1-8-4-16-7-24a38.05,38.05,0,0,0-9-13c-6-5-9-13-10-20a353,353,0,0,1,0-46c0-4,2-8,4-11,4-5,11-6,16-10,8-4,16-4,25-5a47.14,47.14,0,0,0,15-6,29.59,29.59,0,0,1,10-2c5,1,8,5,7,10-4,14-15,21-25,30-4,4-7,11-1,15,10,5,21,8,27,18,4,7,2,15,1.72,22.44"/><path class="cls-1" d="M262.72,176.07C260,197.8,259,220.8,247,241.8c-5,8-13,12-19,19l-3,6c-2,5-4,11-4,16,1,37,6,73,9,110.12"/><path class="cls-2" d="M188.74,155s-18.67,15.54-27.22,4.64,10.89-17.15,10.89-17.15a20.84,20.84,0,0,1,3.89-1.37,15.39,15.39,0,0,1,8.11-.19c.48.15,7.25,2.31,7.24,7.78C191.64,151.79,189.53,154.2,188.74,155Z"/><path class="cls-1" d="M111,196.25a256.91,256.91,0,0,0,12.8,24.62c8.3,14.2,17.9,28.76,30.8,39.21,5.92,4.79,13.1,9,20.93,9l-1,9.65c-5.54,48.1-9.54,95.1-14.8,143"/><line class="cls-1" x1="189.98" y1="220.43" x2="261.54" y2="187.97"/><path class="cls-1" d="M364.77,193.78,301.33,303.09h19.75a173.21,173.21,0,0,1-283.25-35.4L65.68,270,18.43,188,71.22,204.2,41.94,100.8c2-3.42,4.09-6.75,6.3-10l75.85,17,57.44-92.77a2,2,0,0,1,.35,0L238,104.19l85.38-21-20,120,61.44-9.55A.43.43,0,0,1,364.77,193.78Z"/><path class="cls-1" d="M188.74,155s51.43,2.75,75.49,16"/><path class="cls-3" d="M181.53,15.05l-57.44,92.77-75.85-17A173,173,0,0,1,181.53,15.05Z"/><path class="cls-3" d="M71.22,204.2,18.43,188A172.32,172.32,0,0,1,41.94,100.8Z"/><polyline class="cls-1" points="41.94 100.81 38.48 88.61 48.24 90.8"/><path class="cls-3" d="M65.68,270l-27.85-2.31A172.48,172.48,0,0,1,18.43,188Z"/><line class="cls-1" x1="37.83" y1="267.69" x2="27.75" y2="266.85"/><path class="cls-3" d="M364.87,188c0,1.89,0,3.77-.1,5.65l-61.44,9.55,20-120-85.38,21L181.88,15q4.85-.29,9.77-.28A173.22,173.22,0,0,1,364.87,188Z"/><path class="cls-3" d="M364.77,193.78a172.53,172.53,0,0,1-43.69,109.31H301.33Z"/><line class="cls-1" x1="364.87" y1="193.6" x2="364.77" y2="193.78"/><line class="cls-1" x1="338.78" y1="303.09" x2="321.08" y2="303.09"/><polyline class="cls-1" points="181.53 15.05 181.71 14.76 181.88 15.04"/><path class="cls-2" d="M187.44,153.2s-17.88,16.15-24.47,6.75,11.15-17,11.15-17a21.84,21.84,0,0,1,3.56-1.62c1.49-.52,4.4-1.53,7.18-.9.41.09,6.2,1.51,5.71,6.61C190.29,149.92,188.21,152.36,187.44,153.2Z"/><path class="cls-2" d="M185.44,153.82s-17.57,16.38-23.38,7.58,11.25-16.87,11.25-16.87a22.64,22.64,0,0,1,3.43-1.72c1.43-.57,4.22-1.67,6.81-1.18.39.07,5.79,1.19,5.1,6.14A12.57,12.57,0,0,1,185.44,153.82Z"/><path class="cls-2" d="M182.81,152.91s-13.05,12.07-17.5,5.44,8.3-12.49,8.3-12.49a16.56,16.56,0,0,1,2.56-1.25,9.7,9.7,0,0,1,5.11-.82c.29.06,4.36.94,3.89,4.63A9.09,9.09,0,0,1,182.81,152.91Z"/><path class="cls-2" d="M182,156.11s-13.05,12.07-17.5,5.44,8.3-12.49,8.3-12.49a16.56,16.56,0,0,1,2.56-1.25,9.7,9.7,0,0,1,5.11-.82c.29.06,4.36.94,3.89,4.63A9.09,9.09,0,0,1,182,156.11Z"/><path class="cls-2" d="M187.39,151.5s-13.05,12.07-17.5,5.44,8.3-12.49,8.3-12.49a16.56,16.56,0,0,1,2.56-1.25,9.7,9.7,0,0,1,5.11-.82c.29.06,4.36.94,3.89,4.63A9.09,9.09,0,0,1,187.39,151.5Z"/><path class="cls-2" d="M180.66,155.18s-11.23,9.69-15.94,3.41,6.74-10.46,6.74-10.46a13,13,0,0,1,2.3-.91,8.88,8.88,0,0,1,4.72-.31c.28.08,4.16,1.2,4,4.45A6.4,6.4,0,0,1,180.66,155.18Z"/><path class="cls-2" d="M184.9,152.91s-13.05,12.07-17.5,5.44,8.3-12.49,8.3-12.49a16.56,16.56,0,0,1,2.56-1.25,9.7,9.7,0,0,1,5.11-.82c.29.06,4.36.94,3.89,4.63A9.09,9.09,0,0,1,184.9,152.91Z"/><path class="cls-2" d="M178.87,152.29s-8.36,8.77-9.89,5.38,5.91-8.43,5.91-8.43a15,15,0,0,1,1.51-1.06,6.43,6.43,0,0,1,2.79-1.12c.15,0,2.18,0,1.48,2.27A9.61,9.61,0,0,1,178.87,152.29Z"/><path class="cls-2" d="M180.84,150s-.58,9.8-5.37,9-1.7-8.08-1.7-8.08a8.76,8.76,0,0,1,.59-1.5,5.63,5.63,0,0,1,1.9-2.34c.15-.09,2.32-1.37,3.7.24A4.53,4.53,0,0,1,180.84,150Z"/><path class="cls-2" d="M175.08,158.63s-9.51-2.44-7.83-7,8.26-.12,8.26-.12a8.76,8.76,0,0,1,1.36.87,5.63,5.63,0,0,1,1.93,2.31c.06.17.9,2.54-.94,3.59A4.53,4.53,0,0,1,175.08,158.63Z"/><path class="cls-2" d="M182.73,147.65s-.58,9.8-5.37,9-1.7-8.08-1.7-8.08a8.76,8.76,0,0,1,.59-1.5,5.63,5.63,0,0,1,1.9-2.34c.15-.09,2.32-1.37,3.7.24A4.53,4.53,0,0,1,182.73,147.65Z"/><path class="cls-2" d="M177.63,154.06s-6.76,7.12-9.93,3.43,3.91-7.27,3.91-7.27a8.76,8.76,0,0,1,1.42-.76,5.63,5.63,0,0,1,3-.56c.18,0,2.66.45,2.67,2.57A4.53,4.53,0,0,1,177.63,154.06Z"/></svg>
