<svg id="Lag_1" data-name="Lag 1" xmlns="http://www.w3.org/2000/svg" viewBox="0 0 93.54 48.9"><defs><style>.cls-1{fill:#414141;}.cls-2{fill:#e6dbdb;}.cls-3,.cls-4{fill:none;stroke:#000;stroke-width:0.1px;}.cls-3{stroke-miterlimit:10;}.cls-5{fill:#1d1d1b;}</style></defs><title>Tegnebræt 2</title><rect class="cls-1" x="-1.72" y="26.28" width="97.73" height="8.35"/><circle class="cls-2" cx="57.63" cy="24.17" r="20.3"/><path class="cls-3" d="M8,38.85h46.5s2.17-1.86,1-2.94-2.56,0-3.26,0-5.92-1.33-1.4-2.56h1.58s1.79.21,2.49-.56,2.7-.81,4,.46,3.85,2.38,5,.35.63-2.7-1.4-3.47-2.6-1.34-2.4-1.83,1.42-1.07,1.42-1.88.23-2.78.23-2.78-2.5.7-3-1.67c-.14-.66,0-.66,0-1.06A4.68,4.68,0,0,0,58,19.77c-.41-.51-.11-1.64,0-2.07.18-.77-.28-1.49-.39-2.1-.07-.44-.07-3.36,1-4.13s2-2.28,4.34-2.56a2.37,2.37,0,0,1,2.77,1.72l.21,3.68s.18,2.45-.95.35-2-3.92-2-3.92-1.54-1-1.89-.46a12.07,12.07,0,0,1-1.72,1.61,3.5,3.5,0,0,0-.6,2.24c0,.88-.49,1.33.63,1.37s1.89-.81,3.26-.14,1.23,1.89.14,1.93-2.27.14-2.27.14l.1,1,.43,1s-.11.39-.84.19c-.51-.13-.48.59-.48.59s0,.38.07.39c.26.06.36-.37,1-.05a4.55,4.55,0,0,1,.91.55s-.76,1.14-1.79,1A1.41,1.41,0,0,1,58.73,21a4.1,4.1,0,0,0,3,.08"/><path class="cls-3" d="M84.78,38.26H70s2-7.19-1.1-12a9.66,9.66,0,0,0-5.64,1.58c-2.9,1.85-3.1,1-3.1,1a2.56,2.56,0,0,1,1.3-2.43"/><path class="cls-4" d="M61.3,27c6.91-4.58,7.63-3.11,7.63-3.11a1.78,1.78,0,0,1,0,2.43L61.3,28.92a11.5,11.5,0,0,1,4.29.08,2.31,2.31,0,0,1,1.9,2.51,26.85,26.85,0,0,1,0,5.41,1.59,1.59,0,0,1-1.54,1.35,16.89,16.89,0,0,1-2.37,0c-.75-.1-3.06-.95-3.39-1.7A1.09,1.09,0,0,0,59,36c-2.1.65-11.67-.35-11.67-.35a11.21,11.21,0,0,1-4.26-.7C40.73,34.06,42,32.5,42,32.5l4.43-10.22A11.47,11.47,0,0,0,48.1,20a3.82,3.82,0,0,1,2-2,19.87,19.87,0,0,0,3.51-1.8,1.05,1.05,0,0,1,1.15,0L56,18.4c-.45,1.08-1.35.17-1.35.17s-1.8-.6-1.9.46a9.37,9.37,0,0,0,4-.31s.92.21,0,.85a6.14,6.14,0,0,1-2.33.46s-.7.85-3.11,1c0,0-.75-.7-1.45,1.4s-2.1,5.46-2.1,6.86v1.9S49.65,29.8,54,30a9.26,9.26,0,0,0,2.41-.85,8.47,8.47,0,0,1,3.77-.35"/><path class="cls-3" d="M58.73,21a1,1,0,0,1,.32-.57c.29-.26.66.12.73.12-.07-.26.06-.56-.05-.76-.23-.4-.8.12-.62-.74a3,3,0,0,1,.65-.91v-.88h-1.7l-.42-1.68a8.17,8.17,0,0,1,2,.69c.55.33,1.46-.29,1.46-.29a4.82,4.82,0,0,1,1.34.09,14.67,14.67,0,0,0,2.07.2h2.65s1.43-.66,1.43-.69a1.13,1.13,0,0,1,.83,1.62,6.18,6.18,0,0,1-1.29,2.28,13,13,0,0,1-1.63.07c-.18-.06,1.53,3.81-4.79,4.09,0,0-.41,4.53,6.59,0,0,0-.84-2.47-.17-4.15,0,0,3.61-3.17,2.43-5.83s-.71-2.36-1.72-3.1a14.54,14.54,0,0,0-3.48-1.42,15.17,15.17,0,0,1-1.91-1.72,2.05,2.05,0,0,0-2.63,0c-.71.84-1.68,1.79-1.15,2.49s2-.4,2.36-1.25S64.17,9,64.17,9"/><path class="cls-4" d="M63,8.9a1.91,1.91,0,0,0,1-1,1.08,1.08,0,0,1,1.24-.58,2.46,2.46,0,0,1,.78.88c.17.45.12,1,.57,1.14s.92.5,1.28.33.73-.52.62-.83a.51.51,0,0,0-.35-.24,2.9,2.9,0,0,0-.65-.1s-.44-.45-1.85,0c0,0-.41.44-.54.34s-.7-.81-.42-1.07,1-1.35,2-.87c0,0,1.55.48,1.66,1.34s.45.76.45.76.36,0,.31.54-.33,1.14-.19,1.47l.69,1.59a6.14,6.14,0,0,1,.62,3,9.64,9.64,0,0,1-1.35,3"/><path class="cls-4" d="M50,22s.11-1.19-.89,0a36.44,36.44,0,0,0-2.72,4.44S44.49,29.73,45,32.27s2.71-1.07,2.71-1.07"/><path class="cls-3" d="M59.93,22.06s-.28,1.31.11,1.57A4.59,4.59,0,0,0,63.89,22a21.3,21.3,0,0,0,.76-3.17,7.15,7.15,0,0,0,1.89-3.1,5.5,5.5,0,0,0,0-2.16,11.7,11.7,0,0,0-1.17-2c-.23-.09-.54-2.07.83-.52a3.77,3.77,0,0,1,1.1,3s.21,1.89.76,2.27a5.36,5.36,0,0,1,1.14,1.57"/><path class="cls-4" d="M56.74,19.57s-1.61-.12-.45-.74"/><path class="cls-5" d="M9,10.05a1.83,1.83,0,0,1,1.27.53l0-.11c0-.09,0-.14,0-.15a.2.2,0,0,1,.23-.23q.25,0,.25.3a1.08,1.08,0,0,1,0,.15l-.05.34a2.07,2.07,0,0,0,0,.32q0,.13,0,.57v.06q0,.31-.26.31t-.25-.34v-.21a1,1,0,0,0-.32-.76,1.25,1.25,0,0,0-.86-.28,1.24,1.24,0,0,0-1.06.53,2.4,2.4,0,0,0-.38,1.44A2.55,2.55,0,0,0,7.88,14a1.28,1.28,0,0,0,1.1.55,1.08,1.08,0,0,0,.83-.32,1.27,1.27,0,0,0,.29-.9A.53.53,0,0,0,10,13a.36.36,0,0,0-.28-.09H9.42c-.22,0-.34-.08-.34-.24s.1-.25.29-.25l.2,0a5.37,5.37,0,0,0,.71.06,4.52,4.52,0,0,0,.73-.06h.19q.28,0,.28.23a.23.23,0,0,1-.07.17.24.24,0,0,1-.17.07H11q-.31,0-.31.68v.56q0,.18,0,.33c0,.1,0,.17,0,.23s-.08.29-.25.29a.22.22,0,0,1-.25-.25v-.17s0-.11,0-.22a2.36,2.36,0,0,1-.25.3A1.63,1.63,0,0,1,8.87,15a1.79,1.79,0,0,1-1.46-.67,2.68,2.68,0,0,1-.55-1.76,2.84,2.84,0,0,1,.57-1.85A1.86,1.86,0,0,1,9,10.05Z"/><path class="cls-5" d="M13,11.28v.45l0,.57v1.08a1.73,1.73,0,0,0,.11.71.75.75,0,0,0,.41.35,1.45,1.45,0,0,0,.57.12,1.37,1.37,0,0,0,.66-.15.69.69,0,0,0,.35-.4,2.25,2.25,0,0,0,.09-.63v-1.8q0-.53,0-.6-.06-.36-.35-.36h-.14l-.19,0a.21.21,0,0,1-.16-.07.22.22,0,0,1-.07-.16q0-.25.31-.25h.1l.41.06.35,0,.31,0,.3,0,.17,0q.29,0,.29.24t-.29.24h-.15a.24.24,0,0,0-.26.21,6.66,6.66,0,0,0,0,1.07v1.22a5.4,5.4,0,0,1,0,.66,1.43,1.43,0,0,1-.24.61,1.6,1.6,0,0,1-1.42.61,1.55,1.55,0,0,1-1.59-.8,1.93,1.93,0,0,1-.11-.76q0-.25,0-.74t0-.74v-.37q0-.51,0-.57,0-.38-.27-.38h-.2q-.29,0-.29-.24t.27-.24l.24,0a4,4,0,0,0,.64.06,4.43,4.43,0,0,0,.69-.06h.18q.29,0,.29.24a.21.21,0,0,1-.25.24l-.17,0-.17,0a.3.3,0,0,0-.3.24A1.75,1.75,0,0,0,13,11.28Z"/><path class="cls-5" d="M20.3,12.29a2.39,2.39,0,0,1-.52.17.83.83,0,0,1,.56.31,1.4,1.4,0,0,1,.16.76v.4q0,.5.32.5t.33-.6v-.48a.93.93,0,0,1,0-.28.22.22,0,0,1,.22-.12q.25,0,.25.29v.67a.8.8,0,0,0,0,.13.79.79,0,0,1-.86.86.73.73,0,0,1-.83-.83v-.6a.81.81,0,0,0-.18-.62A1.23,1.23,0,0,0,19,12.7h-.65q-.22,0-.22.27v.54q0,.52,0,.59.06.35.35.35h.33a.2.2,0,0,1,.22.23q0,.25-.3.25h-.1l-.38,0-.38,0a4,4,0,0,0-.49,0l-.34,0H17q-.3,0-.3-.25a.2.2,0,0,1,.22-.22h.19l.15,0q.36,0,.36-.53V11.14q0-.53-.36-.53l-.17,0-.17,0a.2.2,0,0,1-.15-.07.22.22,0,0,1-.06-.16q0-.24.31-.24h.1l.36,0h.83l.53,0h.49q1.54,0,1.54,1.17A.94.94,0,0,1,20.3,12.29Zm-1.94-.06H19a1.82,1.82,0,0,0,.88-.17.72.72,0,0,0,.36-.68q0-.8-1.1-.8a2.34,2.34,0,0,0-.79.09.35.35,0,0,0-.21.35v1c0,.08,0,.13,0,.15A.29.29,0,0,0,18.36,12.24Z"/><path class="cls-5" d="M23.27,13.85q0,.41.08.49a.28.28,0,0,0,.16.08H24.6a1.12,1.12,0,0,0,.64-.13.64.64,0,0,0,.16-.51q0-.1,0-.24t0-.32q0-.3.25-.3t.29.28a1,1,0,0,1,0,.13l0,.36a2.35,2.35,0,0,0,0,.32c0,.07,0,.16,0,.29s0,.23,0,.29-.12.31-.36.31l-.32,0-.52,0H23l-.56,0h-.41c-.2,0-.29-.08-.29-.25a.19.19,0,0,1,.22-.22l.17,0,.17,0q.36,0,.36-.53V11.14q0-.52-.36-.52h-.15l-.19,0a.2.2,0,0,1-.15-.07.23.23,0,0,1-.06-.16q0-.24.3-.24h.1l.37,0,.46,0,.45,0,.32,0h.09q.31,0,.31.24a.23.23,0,0,1-.06.16.2.2,0,0,1-.15.07l-.19,0h-.15q-.36,0-.36.52Z"/><path class="cls-5" d="M27.14,13.94v-2.8q0-.52-.35-.52h-.15l-.19,0c-.15,0-.22-.08-.22-.23s.1-.24.31-.24h.1l.34,0,.42,0,.42,0q.57,0,.87,0a3.65,3.65,0,0,1,.77.07,1.2,1.2,0,0,1,.72.43,1.28,1.28,0,0,1,.26.81,1.2,1.2,0,0,1-.45,1,2.1,2.1,0,0,1-1.31.35H27.9c-.07,0-.12,0-.14,0a.32.32,0,0,0,0,.18v.14a6,6,0,0,0,.05,1.07q.05.19.3.19l.15,0h.19a.19.19,0,0,1,.22.22q0,.25-.31.25h-.1l-.35,0-.44,0-.4,0-.41.06h-.09q-.32,0-.32-.25a.23.23,0,0,1,.06-.16.2.2,0,0,1,.15-.07l.19,0h.15Q27.14,14.47,27.14,13.94Zm.64-3.17a.87.87,0,0,0,0,.39v1c0,.13.09.2.27.22h.41a3.71,3.71,0,0,0,.83-.08.75.75,0,0,0,.62-.82q0-.89-1.13-.89Q27.87,10.63,27.77,10.77Z"/><path class="cls-5" d="M32.83,15a1.79,1.79,0,0,1-1.47-.67,2.81,2.81,0,0,1-.54-1.82,2.78,2.78,0,0,1,.55-1.82,1.85,1.85,0,0,1,1.5-.66,1.81,1.81,0,0,1,1.46.64,2.62,2.62,0,0,1,.54,1.74,3,3,0,0,1-.55,1.89A1.79,1.79,0,0,1,32.83,15Zm0-4.47a1.21,1.21,0,0,0-1,.52,2.47,2.47,0,0,0-.37,1.46A2.51,2.51,0,0,0,31.81,14a1.27,1.27,0,0,0,2.07,0,2.52,2.52,0,0,0,.38-1.47,2.45,2.45,0,0,0-.36-1.45A1.21,1.21,0,0,0,32.85,10.56Z"/><path class="cls-5" d="M36.49,11.28l.57,3,.72-3.64q.09-.48.47-.48a.45.45,0,0,1,.48.42l.7,3.75.6-2.9a2.55,2.55,0,0,0,.06-.47.26.26,0,0,0-.29-.29h-.36c-.2,0-.3-.08-.3-.25s.1-.24.29-.24h.23q.57.07.76.07l.42,0,.42,0a.23.23,0,0,1,.26.25q0,.23-.25.23l-.13,0-.13,0a.23.23,0,0,0-.21.11,2.18,2.18,0,0,0-.16.5l-.78,3.34a.43.43,0,0,1-.43.38Q39,15,39,14.49l-.71-3.7-.78,3.8q-.08.38-.4.38t-.42-.38l-.83-3.49a.78.78,0,0,0-.16-.36.41.41,0,0,0-.3-.09h0l-.15,0q-.22,0-.22-.23a.22.22,0,0,1,.25-.25l.22,0a4.47,4.47,0,0,0,.73.06q.17,0,.77-.07h.2c.17,0,.25.08.25.23s-.1.25-.31.25h-.38q-.25,0-.25.23a1.07,1.07,0,0,0,0,.2Z"/><path class="cls-5" d="M42.52,11.14q0-.52-.36-.52H42l-.19,0a.2.2,0,0,1-.15-.07.23.23,0,0,1-.06-.16q0-.24.29-.24H42l1,.07H43l1.68,0,.36,0h.2q.36,0,.36.32s0,.16,0,.36,0,.29,0,.41a3.21,3.21,0,0,0,0,.34c0,.14,0,.24,0,.3s-.08.27-.25.27-.25-.12-.25-.37v-.36q0-.59-.24-.69a3.28,3.28,0,0,0-.94-.08,4.37,4.37,0,0,0-.59,0,.38.38,0,0,0-.3.42v.7c0,.19,0,.29.12.32h.45q.44,0,.44-.3a1.73,1.73,0,0,0,0-.22,1.91,1.91,0,0,1,0-.24c0-.19.08-.28.25-.28s.25.1.25.3q0,.06,0,.43a4.82,4.82,0,0,0,0,.57c0,.09,0,.26,0,.5l0,.25a2,2,0,0,1,0,.24.22.22,0,0,1-.25.25q-.24,0-.24-.29a2.14,2.14,0,0,1,0-.22,2,2,0,0,0,0-.22q0-.3-.4-.3h-.31q-.2,0-.25.07a.64.64,0,0,0,0,.3v.43q0,.11,0,.3t0,.31c0,.19,0,.3.11.35a.82.82,0,0,0,.36,0h1a1,1,0,0,0,.57-.12.56.56,0,0,0,.15-.46c0-.07,0-.17,0-.31s0-.24,0-.31.08-.31.25-.31.26.11.26.32,0,.21,0,.39,0,.3,0,.38,0,.16,0,.29,0,.23,0,.29a.29.29,0,0,1-.32.33H43.29q-.66,0-1.29,0h-.1c-.2,0-.29-.08-.29-.25a.19.19,0,0,1,.22-.22H42l.15,0q.36,0,.36-.53Z"/><path class="cls-5" d="M49.94,12.29a2.39,2.39,0,0,1-.52.17.83.83,0,0,1,.56.31,1.4,1.4,0,0,1,.16.76v.4q0,.5.32.5t.33-.6v-.48a.93.93,0,0,1,0-.28A.22.22,0,0,1,51,13q.25,0,.25.29v.67a.8.8,0,0,0,0,.13.79.79,0,0,1-.86.86.73.73,0,0,1-.83-.83v-.6a.81.81,0,0,0-.18-.62,1.23,1.23,0,0,0-.74-.15H48q-.22,0-.22.27v.54q0,.52,0,.59.06.35.35.35h.33a.2.2,0,0,1,.22.23q0,.25-.3.25h-.1l-.38,0-.38,0a4,4,0,0,0-.49,0l-.34,0h-.1q-.3,0-.3-.25a.2.2,0,0,1,.22-.22h.19l.15,0q.36,0,.36-.53V11.14q0-.53-.36-.53l-.17,0-.17,0a.2.2,0,0,1-.15-.07.22.22,0,0,1-.06-.16q0-.24.31-.24h.1l.36,0h.83l.53,0h.49q1.54,0,1.54,1.17A.94.94,0,0,1,49.94,12.29ZM48,12.24h.66a1.82,1.82,0,0,0,.88-.17.72.72,0,0,0,.36-.68q0-.8-1.1-.8a2.34,2.34,0,0,0-.79.09.35.35,0,0,0-.21.35v1c0,.08,0,.13,0,.15A.29.29,0,0,0,48,12.24Z"/></svg>
