<svg id="Lag_1" data-name="Lag 1" xmlns="http://www.w3.org/2000/svg" viewBox="0 0 94.24 49.87"><defs><style>.cls-1{fill:#dedede;}.cls-2,.cls-3{fill:none;stroke:#000;stroke-width:0.1px;}.cls-2{stroke-miterlimit:10;}</style></defs><title>Tegnebræt 1</title><circle class="cls-1" cx="60.48" cy="24.94" r="22.18"/><path class="cls-2" d="M8.63,39.57h46.5s2.17-1.86,1-2.94-2.56,0-3.26,0-5.92-1.33-1.4-2.56H53s1.79.21,2.49-.56,2.7-.81,4,.46,3.85,2.38,5,.35.63-2.7-1.4-3.47-2.6-1.34-2.4-1.83,1.42-1.07,1.42-1.88.23-2.78.23-2.78-2.5.7-3-1.67c-.14-.66,0-.66,0-1.06a4.68,4.68,0,0,0-.65-1.14c-.41-.51-.11-1.64,0-2.07.18-.77-.28-1.49-.39-2.1-.07-.44-.07-3.36,1-4.13s2-2.28,4.34-2.56a2.37,2.37,0,0,1,2.77,1.72L66.59,15s.18,2.45-.95.35-2-3.92-2-3.92-1.54-1-1.89-.46A12.07,12.07,0,0,1,60,12.6a3.5,3.5,0,0,0-.6,2.24c0,.88-.49,1.33.63,1.37s1.89-.81,3.26-.14S64.55,18,63.47,18s-2.27.14-2.27.14l.1,1,.43,1s-.11.39-.84.19c-.51-.13-.48.59-.48.59s0,.38.07.39c.26.06.36-.37,1-.05a4.55,4.55,0,0,1,.91.55s-.76,1.14-1.79,1a1.41,1.41,0,0,1-1.2-1.06,4.1,4.1,0,0,0,3,.08"/><path class="cls-2" d="M85.43,39H70.68s2-7.19-1.1-12a9.66,9.66,0,0,0-5.64,1.58c-2.9,1.85-3.1,1-3.1,1a2.56,2.56,0,0,1,1.3-2.43"/><path class="cls-3" d="M61.95,27.69c6.91-4.58,7.63-3.11,7.63-3.11a1.78,1.78,0,0,1,0,2.43l-7.63,2.62a11.5,11.5,0,0,1,4.29.08,2.31,2.31,0,0,1,1.9,2.51,26.85,26.85,0,0,1,0,5.41A1.59,1.59,0,0,1,66.6,39a16.89,16.89,0,0,1-2.37,0c-.75-.1-3.06-.95-3.39-1.7a1.09,1.09,0,0,0-1.17-.6c-2.1.65-11.67-.35-11.67-.35a11.21,11.21,0,0,1-4.26-.7c-2.35-.85-1.05-2.41-1.05-2.41L47.12,23a11.47,11.47,0,0,0,1.63-2.25,3.82,3.82,0,0,1,2-2A19.87,19.87,0,0,0,54.26,17a1.05,1.05,0,0,1,1.15,0l1.25,2.12c-.45,1.08-1.35.17-1.35.17s-1.8-.6-1.9.46a9.37,9.37,0,0,0,4-.31s.92.21,0,.85a6.14,6.14,0,0,1-2.33.46s-.7.85-3.11,1c0,0-.75-.7-1.45,1.4S48.4,28.61,48.4,30v1.9s1.9-1.4,6.26-1.15a9.26,9.26,0,0,0,2.41-.85,8.47,8.47,0,0,1,3.77-.35"/><path class="cls-2" d="M59.38,21.72a1,1,0,0,1,.32-.57c.29-.26.66.12.73.12-.07-.26.06-.56-.05-.76-.23-.4-.8.12-.62-.74a3,3,0,0,1,.65-.91V18h-1.7l-.42-1.68a8.17,8.17,0,0,1,2,.69c.55.33,1.46-.29,1.46-.29a4.82,4.82,0,0,1,1.34.09,14.67,14.67,0,0,0,2.07.2h2.65s1.43-.66,1.43-.69a1.13,1.13,0,0,1,.83,1.62,6.18,6.18,0,0,1-1.29,2.28,13,13,0,0,1-1.63.07c-.18-.06,1.53,3.81-4.79,4.09,0,0-.41,4.53,6.59,0,0,0-.84-2.47-.17-4.15,0,0,3.61-3.17,2.43-5.83s-.71-2.36-1.72-3.1A14.54,14.54,0,0,0,66,9.86,15.17,15.17,0,0,1,64.1,8.14a2.05,2.05,0,0,0-2.63,0c-.71.84-1.68,1.79-1.15,2.49s2-.4,2.36-1.25,2.13.32,2.13.32"/><path class="cls-3" d="M63.61,9.62a1.91,1.91,0,0,0,1-1,1.08,1.08,0,0,1,1.24-.58A2.46,2.46,0,0,1,66.6,9c.17.45.12,1,.57,1.14s.92.5,1.28.33.73-.52.62-.83a.51.51,0,0,0-.35-.24,2.9,2.9,0,0,0-.65-.1s-.44-.45-1.85,0c0,0-.41.44-.54.34s-.7-.81-.42-1.07,1-1.35,2-.87c0,0,1.55.48,1.66,1.34s.45.76.45.76.36,0,.31.54-.33,1.14-.19,1.47l.69,1.59a6.14,6.14,0,0,1,.62,3,9.64,9.64,0,0,1-1.35,3"/><path class="cls-3" d="M50.64,22.77s.11-1.19-.89,0A36.44,36.44,0,0,0,47,27.21S45.14,30.45,45.69,33s2.71-1.07,2.71-1.07"/><path class="cls-2" d="M60.58,22.78s-.28,1.31.11,1.57a4.59,4.59,0,0,0,3.85-1.65,21.3,21.3,0,0,0,.76-3.17,7.15,7.15,0,0,0,1.89-3.1,5.5,5.5,0,0,0,0-2.16,11.7,11.7,0,0,0-1.17-2c-.23-.09-.54-2.07.83-.52a3.77,3.77,0,0,1,1.1,3s.21,1.89.76,2.27a5.36,5.36,0,0,1,1.14,1.57"/><path class="cls-3" d="M57.39,20.28s-1.61-.12-.45-.74"/></svg>
