<svg xmlns="http://www.w3.org/2000/svg" width="267" height="267" viewBox="0 0 267 267">
  <g id="Group_1" data-name="Group 1" transform="translate(-827 -4495)">
    <g id="Ellipse_4" data-name="Ellipse 4" transform="translate(827 4495)" fill="none" stroke="#fff" stroke-width="5">
      <circle cx="133.5" cy="133.5" r="133.5" stroke="none"/>
      <circle cx="133.5" cy="133.5" r="131" fill="none"/>
    </g>
    <g id="Polygon_2" data-name="Polygon 2" transform="translate(1041.377 4551.155) rotate(90)" fill="none">
      <path d="M67.7,11.118a8,8,0,0,1,13.639,0l60.228,98.191a8,8,0,0,1-6.819,12.183H14.292a8,8,0,0,1-6.819-12.183Z" stroke="none"/>
      <path d="M 74.51982116699219 12.30067443847656 C 74.01491546630859 12.30067443847656 72.75502777099609 12.44015502929688 71.96257019042969 13.73213195800781 L 11.73471069335938 111.9235153198242 C 10.90475463867188 113.2766342163086 11.4158935546875 114.4959487915039 11.67417907714844 114.9573822021484 C 11.93247985839844 115.418815612793 12.70458984375 116.4920654296875 14.29197692871094 116.4920654296875 L 134.7476806640625 116.4920654296875 C 136.3350677490234 116.4920654296875 137.1072082519531 115.418815612793 137.3655090332031 114.9573822021484 C 137.623779296875 114.4959487915039 138.1349334716797 113.2766342163086 137.3049621582031 111.9235153198242 L 77.07709503173828 13.73213195800781 C 76.28463745117188 12.44015502929688 75.02472686767578 12.30067443847656 74.51982116699219 12.30067443847656 M 74.51983642578125 7.300682067871094 C 77.14907073974609 7.300682067871094 79.77831268310547 8.573074340820312 81.33921051025391 11.11785888671875 L 141.5670776367188 109.3092498779297 C 144.836669921875 114.6397247314453 141.0010223388672 121.4920654296875 134.7476806640625 121.4920654296875 L 14.29197692871094 121.4920654296875 C 8.03863525390625 121.4920654296875 4.203033447265625 114.6397247314453 7.47259521484375 109.3092498779297 L 67.70045471191406 11.11785888671875 C 69.2613525390625 8.573074340820312 71.89059448242188 7.300682067871094 74.51983642578125 7.300682067871094 Z" stroke="none" fill="#fff"/>
    </g>
  </g>
</svg>
