<svg id="Lag_1" data-name="Lag 1" xmlns="http://www.w3.org/2000/svg" viewBox="0 0 1920 1080"><defs><style>.cls-1{fill:#414141;}.cls-2{fill:#e6dbdb;}.cls-3{fill:none;stroke:#000;stroke-miterlimit:10;stroke-width:2px;}</style></defs><title>Tegnebræt 1</title><rect class="cls-1" x="-26" y="620" width="1973" height="161"/><circle class="cls-2" cx="1193.51" cy="571.34" r="453.34"/><path class="cls-3" d="M142.93,883.51h989.94s46.24-39.53,20.88-62.65-54.45.75-69.37,0-126-28.34-29.83-54.45h33.56s38,4.48,53-11.93,57.43-17.16,85.77,9.7,82,50.72,105.91,7.46,13.43-57.43-29.83-73.84-55.43-28.51-51.06-39c4.93-11.85,30.18-22.88,30.18-40s4.8-59.18,4.8-59.18-53.29,14.81-63.82-35.5c-2.94-14.06.74-14.15-.58-22.51-1.13-7.13-13.93-24.36-13.93-24.36-8.8-10.79-2.4-35-.31-44.17,3.73-16.41-6-31.69-8.2-44.75-1.54-9.31-1.49-71.6,20.88-88s43.26-48.48,92.49-54.45,58.92,36.55,58.92,36.55l4.48,78.31s3.73,52.21-20.14,7.46-42.51-83.54-42.51-83.54-32.82-20.88-40.28-9.7-29.09,27.6-36.55,34.31-13.43,29.09-12.68,47.73S1214.17,385.28,1238,386s40.28-17.16,69.36-3,26.1,40.28,3,41-48.35,3.06-48.35,3.06l2.11,21.55,9.21,21s-2.4,8.22-17.86,4.12c-10.8-2.86-10.27,12.47-10.27,12.47.94.18.56,8,1.59,8.24,5.55,1.23,7.77-7.87,20.82-1.08a96.92,96.92,0,0,1,19.32,11.79s-16.1,24.3-38.1,20.78-25.56-22.5-25.56-22.5,25.53,13.63,63.66,1.72"/><path class="cls-3" d="M1778,870.93H1463.94s42.2-153.17-23.44-254.76c0,0-58.47-5.82-120.17,33.64s-65.95,20.75-65.95,20.75-2.73-38.43,27.67-51.83"/><path class="cls-3" d="M1278,630.5c147.11-97.51,162.46-66.12,162.46-66.12,24,25.76,0,51.8,0,51.8L1278,672s45.38-9,91.25,1.69S1409.82,727,1409.82,727s7.47,85.34,0,115.21S1377,870.93,1377,870.93s-34.37,2.22-50.37,0-65.07-20.18-72.23-36.18-24.84-12.8-24.84-12.8c-44.8,13.87-248.55-7.47-248.55-7.47s-40.54,3.2-90.67-14.93-22.4-51.2-22.4-51.2l94.4-217.61s30.41-34.14,34.67-48,27.73-38.4,42.67-41.6,61.87-29.87,74.67-38.22,24.53,0,24.53,0l26.67,45.2c-9.6,23-28.8,3.59-28.8,3.59s-38.4-12.71-40.54,9.69c0,0,35.2,7,84.27-6.64,0,0,19.53,4.53.54,18.13,0,0-29.34,12-49.61,9.84,0,0-14.93,18.13-66.14,21.33,0,0-16-14.93-30.94,29.87s-44.8,116.27-44.8,146.14v40.54s40.54-29.87,133.34-24.53a197.17,197.17,0,0,0,51.2-18.13c26.67-13.87,80.31-7.38,80.31-7.38"/><path class="cls-3" d="M1223.29,503.54a21.2,21.2,0,0,1,6.77-12.09c6.28-5.51,14.07,2.46,15.57,2.55-1.6-5.48,1.22-12-1.15-16.12-4.93-8.6-17.06,2.56-13.1-15.68,1.54-7.08,13.84-19.44,13.84-19.44V424H1209l-9-35.7s28.34,5.76,43,14.64c11.73,7.09,31.1-6.16,31.1-6.16s15.55-1.3,28.51,1.94,44.07,4.22,44.07,4.22h56.38s30.46-14.05,30.46-14.64,26.62,5,17.61,34.4a131.52,131.52,0,0,1-27.54,48.51s-30.9,2.68-34.78,1.39,32.58,81.08-102,87c0,0-8.81,96.4,140.37,0,0,0-17.93-52.54-3.58-88.41,0,0,76.76-67.44,51.66-124.11s-15.07-50.22-36.59-66-74.1-30.13-74.1-30.13-35.67-28-40.69-36.59-40.89-17.94-56,0-35.87,38-24.39,53.09,42.33-8.61,50.22-26.54,45.34,6.71,45.34,6.71"/><path class="cls-3" d="M1313.37,245.81s11-3.16,20.72-20.53,26.31-12.33,26.31-12.33,13,9.07,16.58,18.64,2.57,21.16,12.15,24.19,19.65,10.58,27.21,7.05,15.62-11,13.1-17.6c-.91-2.37-3.89-4-7.35-5a61.71,61.71,0,0,0-13.81-2.18s-9.46-9.59-39.31,0c0,0-8.78,9.42-11.48,7.23s-14.87-17.17-9-22.72,20.48-28.78,43.16-18.42c0,0,32.9,10.31,35.27,28.51s9.57,16.11,9.57,16.11,7.56,1,6.55,11.59-7.05,24.19-4,31.24,14.61,33.76,14.61,33.76,17.64,36.28,13.1,63.49S1438,451.7,1438,451.7"/><path class="cls-3" d="M1037.33,525.77s2.33-25.23-19,0-57.86,94.57-57.86,94.57-40.28,69-28.54,123.06,57.6-22.79,57.6-22.79"/><path class="cls-3" d="M1248.85,526s-5.89,28,2.34,33.52c0,0,48.88,5.67,81.93-35.15a453.4,453.4,0,0,0,16.2-67.39s35.64-35,40.18-66.1,0-46,0-46-20-40.83-24.89-42.77-11.4-44.07,17.76-11,23.33,63.51,23.33,63.51,4.54,40.2,16.2,48.29,24.17,33.37,24.17,33.37"/><path class="cls-3" d="M1181,472.89s-34.17-2.63-9.51-15.83"/></svg>
